<?xml version="1.0" encoding="utf-8"?>
<!-- Generator: Adobe Illustrator 17.1.0, SVG Export Plug-In . SVG Version: 6.00 Build 0)  -->
<!DOCTYPE svg PUBLIC "-//W3C//DTD SVG 1.1//EN" "http://www.w3.org/Graphics/SVG/1.1/DTD/svg11.dtd">
<svg version="1.1" id="Layer_1" xmlns="http://www.w3.org/2000/svg" xmlns:xlink="http://www.w3.org/1999/xlink" x="0px" y="0px"
	 viewBox="0 0 90 47.4" enable-background="new 0 0 90 47.4" xml:space="preserve">
<g>
	<path fill="#FFFFFF" d="M56.5,8.2c0,2.1-0.9,2.6-2,2.6h-0.7V5.6h0.7C55.6,5.6,56.5,6.1,56.5,8.2L56.5,8.2z M53.8,15.4h1.2
		c3.4,0,6.4-1.1,6.4-7.1c0-6-3-7.1-6.4-7.1h-6.1V23h5V15.4z"/>
	<polygon fill="#FFFFFF" points="10.1,24.8 10.1,33.2 6.1,33.2 6.1,24.8 1.1,24.8 1.1,46.6 6.1,46.6 6.1,37.7 10.1,37.7 10.1,46.6 
		15.1,46.6 15.1,24.8 	"/>
	<polygon fill="#FFFFFF" points="16.9,24.8 16.9,46.6 29.4,46.6 29.4,42.1 21.9,42.1 21.9,37.7 27.9,37.7 27.9,33.2 21.9,33.2 
		21.9,29.2 29.4,29.2 29.4,24.8 	"/>
	<rect x="55.6" y="24.8" fill="#FFFFFF" width="5" height="21.8"/>
	<polygon fill="#FFFFFF" points="71.1,29.2 74.9,29.2 74.9,24.8 62.4,24.8 62.4,29.2 66.2,29.2 66.2,46.6 71.1,46.6 	"/>
	<polygon fill="#FFFFFF" points="85.4,29.2 89.2,29.2 89.2,24.8 76.7,24.8 76.7,29.2 80.4,29.2 80.4,46.6 85.4,46.6 	"/>
	<polygon fill="#FFFFFF" points="62.4,1.1 62.4,23 74.9,23 74.9,18.5 67.4,18.5 67.4,14.1 73.4,14.1 73.4,9.6 67.4,9.6 67.4,5.6 
		74.9,5.6 74.9,1.1 	"/>
	<path fill="#FFFFFF" d="M26,12.8c0,5-0.5,6.1-2.2,6.1h-0.2c-1.7,0-2.2-1.1-2.2-6.1v-1.5c0-5,0.5-6.1,2.2-6.1h0.2
		c1.7,0,2.2,1.1,2.2,6.1V12.8z M16.4,12.4c0,8.1,1.8,10.8,7.3,10.8c5.5,0,7.3-2.7,7.3-10.8v-0.8c0-8.1-1.8-10.8-7.3-10.8
		c-5.5,0-7.3,2.7-7.3,10.8V12.4z"/>
	<path fill="#FFFFFF" d="M0.6,12.4c0,8.1,2.4,10.8,7.6,10.8c4.8,0,7-1.8,7-7.3v-0.6h-4.9c-0.1,2.7-0.8,3.6-2,3.6H7.9
		c-1.3,0-2.4-1.1-2.4-6.1v-1.5c0-5,1.1-6.1,2.4-6.1h0.2c1.3,0,2,0.8,2,4.4h4.9V8.2c0-5.6-2.2-7.3-7-7.3c-5.2,0-7.6,2.7-7.6,10.8
		V12.4z"/>
	<path fill="#FFFFFF" d="M41.7,12.8c0,5-0.5,6.1-2.2,6.1h-0.2c-1.7,0-2.2-1.1-2.2-6.1v-1.5c0-5,0.5-6.1,2.2-6.1h0.2
		c1.7,0,2.2,1.1,2.2,6.1V12.8z M32.1,12.4c0,8.1,1.8,10.8,7.3,10.8c5.5,0,7.3-2.7,7.3-10.8v-0.8c0-8.1-1.8-10.8-7.3-10.8
		c-5.5,0-7.3,2.7-7.3,10.8V12.4z"/>
	<path fill="#FFFFFF" d="M81.7,15.4h0.9l1.3,7.6l5.3,0l-2.3-8.8c1.1-0.8,2.3-2.4,2.3-6c0-5.9-3-7.1-6.4-7.1h-6.1V23h5V15.4z
		 M84.4,8.2c0,2.1-0.9,2.6-2,2.6h-0.7V5.6h0.7C83.5,5.6,84.4,6.1,84.4,8.2L84.4,8.2z"/>
	<polygon fill="#FFFFFF" points="42.3,24.8 39.4,24.8 37.2,40.5 37.1,40.5 35.8,24.8 30.6,24.8 33.6,46.6 40.1,46.6 42.3,31.7 
		42.4,31.7 44.5,46.6 51.1,46.6 54,24.8 48.8,24.8 47.6,40.5 47.4,40.5 45.2,24.8 	"/>
</g>
</svg>
